<?xml version="1.0" encoding="UTF-8"?>
<svg xmlns="http://www.w3.org/2000/svg" viewBox="0 0 1000 1000" preserveAspectRatio="more">
    <g fill="#F7EEDD">
        <path d="M215,395 C215,395 221,233 295,248 C383,266 394,470 394,470 L397,611 L215,528 Z M329,233 L463,211 L463,352 C463,354 463,357 463,359 C463,402 497,438 541,438 C584,438 620,402 620,359 C620,317 587,282 544,280 L544,206 L580,191 L659,178 C659,178 719,190 756,294 C785,393 756,500 756,500 L421,598 L421,452 C421,452 411,261 329,233 Z M487,100 L578,66 L578,165 L520,190 L520,309 C526,306 534,305 541,305 C570,305 595,329 595,359 C595,388 570,413 541,413 C511,413 487,388 487,359 C487,357 487,355 487,353 Z M504,603 L562,586 L562,991 L504,1000 Z M504,60"/>
    </g>
</svg>
