<?xml version="1.0" encoding="UTF-8"?>
<svg xmlns="http://www.w3.org/2000/svg" viewBox="0 0 815 37" preserveAspectRatio="more">
    <g fill="#393939">
        <path d="M20.8440859,36 L20.8440859,35.6437072 C20.5774924,33.5317443 19.1055796,22.6239324 16.7172599,19 C15.1591233,16.6357503 13.9422095,7.72383002 15.7347075,3.00723539 C16.9346775,-0.150242274 20.5512468,-0.0123353605 20.8660069,0.00582220159 C21.1807682,-0.0123353966 24.797337,-0.150242209 25.997307,3.00723539 C27.7898049,7.72383002 26.5728911,16.6357503 25.0147545,19 C22.6264348,22.6239324 21.1545221,33.5317443 20.8879285,35.6437072 L20.8879285,36 L20.8660068,35.8192396 L20.8440859,36 Z M8.39291402,26.355957 C4.8440859,25.1938477 -2.12954664,23.0405275 0.631683553,17.6982422 C1.75883509,15.517488 7.14957969,16.4322411 10,19.7782291 C14.132374,24.629048 15.8440859,33.1938477 15.8440859,33.1938477 C15.8440859,33.1938477 11.9417422,27.5180664 8.39291402,26.355957 Z M41.2124023,17.6982422 C43.9736325,23.0405275 37,25.1938477 33.4511719,26.355957 C29.9023437,27.5180664 26,33.1938477 26,33.1938477 C26,33.1938477 27.7117119,24.629048 31.8440859,19.7782291 C34.6945062,16.4322411 40.0852508,15.517488 41.2124023,17.6982422 Z M41.2124023,17.6982422" transform="translate(385)"/>
        <circle cx="4" cy="20" r="4"/>
        <circle cx="811" cy="20" r="4"/>
    </g>
    <g stroke="#393939" stroke-width="2.5">
        <line x1="4" y1="20" x2="370" y2="20" />
        <line x1="442" y1="20" x2="811" y2="20" />
    </g>
</svg>
