<?xml version="1.0" encoding="UTF-8"?>
<svg xmlns="http://www.w3.org/2000/svg" width="815" height="45">
    <g fill="#393939">
        <path d="M24,43 L24,42 C24,40 22,26 19,22 C18,19 16,9 18,3 C20,-1 24,0 24,0 C25,0 29,-1 30,3 C33,9 31,19 29,22 C26,26 25,40 24,42 L24,43 L24,42 L24,43 Z M9,31 C5,29 -3,27 0,21 C1,18 8,19 11,23 C16,29 18,39 18,39 C18,39 14,32 9,31 Z M49,21 C52,27 44,29 39,31 C35,32 31,39 31,39 C31,39 33,29 38,23 C41,19 47,18 49,21 Z M49,21" transform="translate(380)"/>
        <circle cx="4" cy="25" r="4"/>
        <circle cx="811" cy="25" r="4"/>
    </g>
    <g stroke="#393939" stroke-width="2.5">
        <line x1="4" y1="25" x2="370" y2="25" />
        <line x1="442" y1="25" x2="811" y2="25" />
    </g>
</svg>
