<?xml version="1.0" encoding="utf-8"?>
<svg xmlns="http://www.w3.org/2000/svg" viewBox="0 0 476 171" preserveAspectRatio="more">
    <g fill="#494949">
        <path d="M20,15.5c0-2,1.5-3.5,3.5-3.5c1.5,0,2.5,1,3,2H170v3H26.5c-0.5,1-1.5,2-3,2 C21.5,19,20,17.5,20,15.5z"/>
        <circle cx="7" cy="15" r="7"/>

        <path d="M452.5,12c-1.5,0-2.5,1-3,2H306v3h143.5c0.5,1,1.5,2,3,2c2,0,3.5-1.5,3.5-3.5 S454.5,12,452.5,12z"/>
        <circle cx="469" cy="15" r="7"/>

        <path d="M20,153.5c0-2,1.5-3.5,3.5-3.5c1.5,0,2.5,1,3,2H200v3H26.5c-0.5,1-1.5,2-3,2 C21.5,157,20,155.5,20,153.5z"/>
        <circle cx="7" cy="153" r="7"/>

        <path d="M452.5,150c-1.5,0-2.5,1-3,2H276v3h173.5c0.5,1,1.5,2,3,2c2,0,3.5-1.5,3.5-3.5 S454.5,150,452.5,150z"/>
        <circle cx="469" cy="153" r="7"/>

        <path d="M238.422,170v-0.356c-0.267-2.112-1.738-13.02-4.127-16.644 c-1.558-2.364-2.775-11.276-0.982-15.992c1.2-3.158,4.816-3.02,5.131-3.002c0.315-0.018,3.932-0.156,5.132,3.002 c1.792,4.716,0.575,13.628-0.982,15.992c-2.389,3.624-3.86,14.531-4.127,16.644V170l-0.022-0.181L238.422,170z M225.971,160.355 c-3.549-1.162-10.522-3.314-7.762-8.657c1.128-2.181,6.519-1.267,9.369,2.08c4.132,4.851,5.844,13.415,5.844,13.415 S229.52,161.518,225.971,160.355z M258.79,151.698c2.762,5.343-4.212,7.495-7.761,8.657s-7.451,6.838-7.451,6.838 s1.711-8.564,5.844-13.415C252.273,150.432,257.663,149.518,258.79,151.698z"/>

        <path d="M201.138,5.141c-1.796,0-3.397,0.477-4.806,1.429s-2.525,2.34-3.35,4.163 c-0.825,1.823-1.237,3.833-1.237,6.029c0,2.051,0.503,3.628,1.511,4.73c1.007,1.103,2.454,1.654,4.341,1.654 c1.276,0,2.661-0.232,4.156-0.697v1.285c-1.422,0.446-2.862,0.67-4.32,0.67c-2.297,0-4.056-0.661-5.277-1.982 c-1.222-1.321-1.832-3.19-1.832-5.605c0-2.425,0.476-4.648,1.429-6.672c0.952-2.023,2.249-3.577,3.89-4.662 s3.473-1.627,5.496-1.627c1.613,0,3.012,0.31,4.197,0.93l-0.615,1.23c-0.501-0.273-1.069-0.487-1.702-0.643 C202.385,5.218,201.758,5.141,201.138,5.141z"/>
        <path d="M213.703,24.131l2.01-9.215c0.228-1.14,0.342-1.878,0.342-2.215c0-1.659-0.702-2.488-2.105-2.488 c-0.966,0-1.878,0.308-2.734,0.923c-0.857,0.615-1.582,1.475-2.174,2.577c-0.593,1.103-1.048,2.411-1.367,3.924l-1.367,6.494 h-1.34l3.158-14.861h1.094l-0.451,2.871h0.082c0.729-1.03,1.556-1.805,2.481-2.324c0.925-0.52,1.894-0.779,2.905-0.779 c0.966,0,1.709,0.306,2.229,0.916s0.793,1.499,0.82,2.666h0.082c0.702-1.176,1.526-2.066,2.475-2.673 c0.948-0.606,1.959-0.909,3.035-0.909c1.066,0,1.898,0.28,2.495,0.841c0.597,0.561,0.896,1.365,0.896,2.413 c0,0.265-0.012,0.521-0.034,0.772c-0.023,0.251-0.112,0.795-0.267,1.634l-2.078,9.434h-1.367l2.037-9.297 c0.228-1.094,0.342-1.896,0.342-2.406c0-0.702-0.196-1.246-0.588-1.634c-0.392-0.388-0.935-0.581-1.627-0.581 c-1.431,0-2.696,0.627-3.794,1.88c-1.099,1.253-1.866,2.905-2.304,4.956l-1.49,7.082H213.703z"/>
        <path d="M229.603,9.27h1.367l1.121,7.492c0.465,3.199,0.715,5.245,0.752,6.139h0.15 c0.392-0.957,1.239-2.63,2.543-5.018l4.758-8.613h1.408l-9.749,17.637c-0.656,1.157-1.215,1.969-1.675,2.434 c-0.46,0.465-0.98,0.834-1.559,1.107c-0.579,0.273-1.246,0.41-2.003,0.41c-0.62,0-1.208-0.096-1.764-0.287v-1.258 c0.647,0.246,1.271,0.369,1.873,0.369c0.729,0,1.399-0.226,2.01-0.677c0.61-0.451,1.203-1.201,1.777-2.249s1.03-1.887,1.367-2.516 L229.603,9.27z"/>
        <path d="M254.61,10.801c0,1.649-0.232,3.363-0.697,5.141s-1.092,3.313-1.881,4.607 c-0.788,1.294-1.684,2.261-2.686,2.898c-1.004,0.638-2.084,0.957-3.24,0.957c-1.34,0-2.377-0.456-3.111-1.367 c-0.733-0.911-1.1-2.16-1.1-3.746c0-1.677,0.336-3.295,1.012-4.854c0.674-1.559,1.566-2.769,2.68-3.63 c1.111-0.861,2.338-1.292,3.678-1.292c1.977,0,3.268,0.952,3.869,2.857h0.082c0.035-0.255,0.055-0.725,0.055-1.408 c0-2.425-0.331-4.225-0.992-5.4c-0.66-1.176-1.656-1.764-2.986-1.764c-0.484,0-1.01,0.089-1.58,0.267 c-0.569,0.178-1.023,0.371-1.359,0.581l-0.533-1.121c0.473-0.273,1.039-0.501,1.695-0.684s1.293-0.273,1.914-0.273 c1.768,0,3.073,0.675,3.916,2.023C254.188,5.942,254.61,8.012,254.61,10.801z M246.324,23.174c1.467,0,2.791-0.793,3.971-2.379 c1.181-1.586,2.039-3.741,2.578-6.467c-0.639-2.425-1.859-3.637-3.664-3.637c-1.059,0-2.045,0.398-2.961,1.196 s-1.636,1.851-2.16,3.158c-0.523,1.308-0.785,2.673-0.785,4.095C243.303,21.829,244.309,23.174,246.324,23.174z"/>
        <path d="M260.912,9.27l-2.078,9.543c-0.201,0.966-0.301,1.687-0.301,2.16c0,0.675,0.216,1.21,0.648,1.606 c0.434,0.396,1.064,0.595,1.895,0.595c1.002,0,1.947-0.299,2.836-0.896s1.637-1.449,2.242-2.557 c0.606-1.107,1.061-2.381,1.361-3.821l1.436-6.631h1.34l-3.158,14.861h-1.094l0.383-2.803h-0.082 c-1.523,2.015-3.359,3.021-5.51,3.021c-1.195,0-2.1-0.282-2.715-0.848s-0.922-1.39-0.922-2.475c0-0.547,0.1-1.321,0.301-2.324 l2.051-9.434H260.912z"/>
        <path d="M279.451,17.555c-0.758,0-1.375,0.089-1.854,0.267s-0.891,0.467-1.236,0.868 c-0.348,0.401-0.775,1.171-1.285,2.311c-0.465,1.039-0.846,1.743-1.143,2.112c-0.296,0.369-0.631,0.649-1.004,0.841 c-0.375,0.191-0.844,0.287-1.408,0.287c-0.301,0-0.533-0.027-0.697-0.082V23.01c0.109,0.036,0.287,0.055,0.533,0.055 c0.547,0,0.986-0.157,1.318-0.472c0.333-0.314,0.732-1.005,1.197-2.071c0.428-1.012,0.854-1.762,1.277-2.249 s0.932-0.841,1.525-1.06c-0.949-0.183-1.68-0.556-2.195-1.121c-0.515-0.565-0.771-1.304-0.771-2.215 c0-0.957,0.219-1.777,0.656-2.461s1.039-1.212,1.805-1.586s1.627-0.561,2.584-0.561h5.742l-3.172,14.861h-1.34l1.422-6.576 H279.451z M278.918,10.377c-1.186,0-2.117,0.308-2.797,0.923c-0.679,0.615-1.018,1.456-1.018,2.522 c0,1.777,1.262,2.666,3.787,2.666h2.748l1.285-6.111H278.918z"/>

        <path d="M43.425,94.695v25.68l6.42,1.604v1.605H19.35v-1.605l6.42-1.604v-68.48l-6.42-1.604v-1.605h29.96 c6.134,0,11.324,0.519,15.568,1.552c4.243,1.035,7.667,2.552,10.272,4.548c2.603,1.998,4.476,4.405,5.618,7.223 c1.14,2.818,1.712,6.045,1.712,9.684c0,3.638-0.572,6.866-1.712,9.683c-1.142,2.819-3.015,5.227-5.618,7.223 c-2.604,1.998-6.029,3.515-10.272,4.548c-4.245,1.035-9.434,1.552-15.568,1.552H43.425z M49.31,92.02 c2.14,0,4.12-0.409,5.938-1.23c1.819-0.818,3.406-2.067,4.761-3.744c1.354-1.676,2.408-3.78,3.157-6.313 c0.749-2.531,1.124-5.546,1.124-9.041c0-6.919-1.428-12.038-4.28-15.354c-2.854-3.317-6.42-4.976-10.7-4.976h-5.885V92.02H49.31z"/>
        <path d="M91.573,50.29v-1.605h30.495v1.605l-6.42,1.604v54.035l25.145-46.01v-8.025l-6.42-1.604v-1.605h30.495 v1.605l-6.42,1.604v68.48l6.42,1.604v1.605h-30.495v-1.605l6.42-1.604V66.34l-25.145,46.01v8.025l6.42,1.604v1.605H91.573v-1.605 l6.42-1.604v-68.48L91.573,50.29z"/>
        <path d="M188.942,123.585v-1.605l6.42-1.604V51.36h-12.305c0,2.854-0.375,5.296-1.124,7.329 s-1.551,3.764-2.407,5.189c-1,1.642-2.14,2.996-3.424,4.066h-3.21V48.685h62.595v19.261h-3.21 c-1.356-1.07-2.533-2.425-3.531-4.066c-0.856-1.426-1.642-3.156-2.354-5.189c-0.714-2.033-1.07-4.476-1.07-7.329h-12.305v69.015 l6.42,1.604v1.605H188.942z"/>
        <path d="M266.517,91.913l-23.54-40.019l-5.35-1.604v-1.605h15.515c3.78,0,6.723,0.84,8.827,2.515 c2.104,1.677,3.977,3.871,5.617,6.581l10.272,17.548L292.732,53.5l-8.024-3.21v-1.605h20.33v1.605l-8.561,3.21l-16.799,24.717 l24.824,42.158l5.35,1.604v1.605h-15.516c-3.781,0-6.724-0.838-8.826-2.515c-2.105-1.675-3.979-3.868-5.618-6.58l-11.556-19.581 l-16.264,23.86l8.024,3.21v1.605h-20.33v-1.605l8.56-3.21L266.517,91.913z"/>
        <path d="M314.666,50.29v-1.605h30.494v1.605l-6.42,1.604v54.035l25.146-46.01v-8.025l-6.42-1.604v-1.605h30.494 v1.605l-6.42,1.604v68.48l6.42,1.604v1.605h-30.494v-1.605l6.42-1.604V66.34l-25.146,46.01v8.025l6.42,1.604v1.605h-30.494v-1.605 l6.42-1.604v-68.48L314.666,50.29z"/>
        <path d="M431.936,47.08c2.496,0,4.797,0.374,6.902,1.123c2.104,0.749,3.904,1.552,5.402,2.408 c1.783,0.999,3.354,2.14,4.709,3.424c0.57-0.927,1.193-1.766,1.873-2.515c0.676-0.749,1.301-1.373,1.871-1.872 c0.713-0.57,1.428-1.07,2.141-1.498h2.676v20.329h-4.281c-1-3.424-2.391-6.526-4.172-9.309c-1.498-2.354-3.496-4.511-5.992-6.474 c-2.498-1.961-5.529-2.942-9.096-2.942c-2.141,0-4.244,0.589-6.312,1.766c-2.07,1.177-3.906,3.175-5.51,5.992 c-1.605,2.818-2.891,6.563-3.854,11.234c-0.963,4.673-1.443,10.47-1.443,17.388c0,6.992,0.498,12.805,1.498,17.441 c0.998,4.638,2.389,8.364,4.172,11.182c1.783,2.818,3.887,4.814,6.314,5.991c2.424,1.178,5.027,1.766,7.811,1.766 c2.568,0,5.029-0.552,7.383-1.658c2.354-1.105,4.457-2.604,6.312-4.494c1.854-1.889,3.334-4.048,4.441-6.474 c1.104-2.424,1.658-4.992,1.658-7.704h2.674c0,3.068-0.625,5.992-1.871,8.774c-1.25,2.782-2.98,5.227-5.189,7.329 c-2.213,2.105-4.816,3.782-7.812,5.029s-6.242,1.873-9.736,1.873c-5.635,0-10.699-0.856-15.193-2.568s-8.311-4.227-11.449-7.544 c-3.141-3.316-5.547-7.399-7.223-12.251c-1.678-4.851-2.514-10.414-2.514-16.692c0-6.276,0.818-11.84,2.461-16.691 c1.639-4.851,3.959-8.935,6.955-12.252c2.994-3.317,6.561-5.831,10.699-7.543C422.377,47.936,426.942,47.08,431.936,47.08z"/>
    </g>
</svg>
