<?xml version="1.0" encoding="utf-8"?>
<svg xmlns="http://www.w3.org/2000/svg" viewBox="0 0 845 404" preserveAspectRatio="more">
	<g fill="#494949">
		<path d="M122.29,107.7c4.368,0.152,8.323,0.717,11.865,1.695c1.43,0.452,2.862,0.999,4.294,1.639 c1.43,0.641,2.712,1.432,3.842,2.373c1.13,0.942,2.034,2.072,2.712,3.39c0.678,1.319,1.017,2.808,1.017,4.464 c0,1.96-0.491,3.861-1.469,5.706c-0.98,1.848-2.618,3.485-4.916,4.916c-2.299,1.432-5.33,2.562-9.096,3.39 c-3.768,0.83-8.401,1.243-13.899,1.243H85.565v-1.695l6.78-1.694V83.405l-6.78-1.694v-1.695h28.815 c5.198,0,9.605,0.415,13.221,1.243c3.616,0.83,6.535,1.921,8.757,3.276c2.221,1.356,3.823,2.882,4.803,4.577 c0.978,1.694,1.469,3.372,1.469,5.028c0,1.658-0.282,3.107-0.848,4.351c-0.565,1.243-1.338,2.316-2.316,3.221 c-0.98,0.903-2.073,1.677-3.277,2.316c-1.206,0.641-2.449,1.149-3.729,1.525c-3.014,0.904-6.404,1.432-10.17,1.582V107.7z M110.425,82.841v23.165h3.955c2.486,0,4.707-1.055,6.667-3.164c1.958-2.108,2.938-5.009,2.938-8.701 c0-3.39-0.96-6.12-2.881-8.192c-1.921-2.071-4.164-3.107-6.724-3.107H110.425z M110.425,108.831v24.859h6.215 c3.164,0,5.743-1.073,7.74-3.221c1.995-2.146,2.995-5.215,2.995-9.209c0-3.992-1-7.062-2.995-9.21 c-1.997-2.146-4.577-3.22-7.74-3.22H110.425z"/>
		<path d="M180.485,78.32c4.52,0,8.531,0.604,12.034,1.809c3.503,1.206,6.459,2.881,8.871,5.028 c2.41,2.146,4.237,4.709,5.48,7.684c1.243,2.978,1.865,6.234,1.865,9.774v30.511l6.78,1.694v1.695h-10.17 c-2.712,0-4.898-0.433-6.554-1.3c-1.658-0.865-2.977-1.825-3.955-2.881c-1.13-1.28-1.959-2.712-2.486-4.294 c-0.98,1.959-2.223,3.654-3.729,5.085c-1.282,1.281-2.977,2.448-5.085,3.503c-2.11,1.054-4.633,1.582-7.571,1.582 c-3.542,0-6.611-0.396-9.209-1.187c-2.599-0.791-4.766-1.883-6.498-3.277c-1.734-1.393-3.034-3.012-3.898-4.859 c-0.867-1.845-1.3-3.822-1.3-5.932c0-1.732,0.187-3.334,0.565-4.803c0.376-1.469,0.828-2.769,1.356-3.898 c0.602-1.356,1.28-2.6,2.034-3.729c3.164-0.752,6.515-1.43,10.057-2.034c3.012-0.525,6.402-1.034,10.17-1.525 c3.766-0.489,7.571-0.809,11.413-0.96v-3.391c0-4.368-0.283-7.983-0.848-10.848c-0.565-2.862-1.375-5.122-2.43-6.78 c-1.056-1.656-2.355-2.806-3.898-3.446c-1.545-0.639-3.296-0.96-5.254-0.96c-0.83,0-1.582,0.056-2.26,0.169 c-0.678,0.113-1.282,0.245-1.808,0.396c-0.604,0.227-1.13,0.415-1.582,0.565V98.66c-0.528,0.152-1.017,0.266-1.469,0.34 c-0.452,0.075-0.923,0.132-1.412,0.169c-0.491,0.039-1.037,0.057-1.639,0.057c-2.562,0-4.615-0.771-6.159-2.316 c-1.545-1.543-2.316-3.597-2.316-6.158c0-1.582,0.396-3.107,1.187-4.577c0.791-1.469,2.034-2.786,3.729-3.955 c1.695-1.167,3.86-2.107,6.498-2.824C173.629,78.679,176.793,78.32,180.485,78.32z M175.965,109.961 c-0.452,0.979-0.83,2.109-1.13,3.39c-0.302,1.056-0.565,2.299-0.791,3.729c-0.226,1.432-0.339,3.014-0.339,4.745 c0,4.521,0.696,7.724,2.091,9.605c1.393,1.884,2.956,2.825,4.689,2.825c1.732,0,3.22-0.47,4.463-1.413 c1.243-0.94,2.277-1.978,3.107-3.107c0.978-1.355,1.845-2.861,2.599-4.52v-16.385c-1.734,0-3.466,0.056-5.198,0.169 c-1.734,0.113-3.316,0.245-4.746,0.396C179.052,109.622,177.47,109.811,175.965,109.961z"/>
		<path d="M222.294,134.82l6.78-1.694V83.405l-6.78-1.694v-1.695h31.075v1.695l-6.215,1.694v50.285h14.69V83.405 l-6.215-1.694v-1.695h30.51v1.695l-6.215,1.694v50.285h14.69V83.405l-6.215-1.694v-1.695h31.075v1.695l-6.78,1.694v49.721 l6.78,1.694v1.695h-97.18V134.82z"/>
		<path d="M360.152,80.016h66.67v1.695l-6.78,1.694v49.721l6.78,1.694v1.695h-31.641v-1.695l6.781-1.694V82.841 h-16.951v50.285l6.781,1.694v1.695h-31.641v-1.695l6.78-1.694V83.405l-6.78-1.694V80.016z"/>
		<path d="M441.512,83.405l-6.781-1.694v-1.695h10.17c2.637,0,4.803,0.452,6.498,1.356 c1.695,0.903,3.031,1.884,4.012,2.938c1.131,1.282,1.959,2.675,2.486,4.181c0.979-1.882,2.221-3.577,3.729-5.085 c1.281-1.279,2.955-2.447,5.029-3.503c2.07-1.054,4.613-1.582,7.627-1.582c3.238,0,6.271,0.642,9.096,1.921 c2.826,1.282,5.273,3.164,7.346,5.65c2.07,2.486,3.709,5.594,4.916,9.322c1.203,3.729,1.809,8.08,1.809,13.052 s-0.605,9.322-1.809,13.052c-1.207,3.729-2.9,6.836-5.086,9.322s-4.803,4.37-7.854,5.65c-3.051,1.279-6.422,1.921-10.113,1.921 c-1.959,0-3.748-0.227-5.367-0.679c-1.621-0.451-2.994-0.979-4.125-1.582c-1.355-0.678-2.523-1.43-3.502-2.26v22.035l6.779,1.695 v1.694h-31.641v-1.694l6.781-1.695V83.405z M459.592,130.301c0.752,0.83,1.582,1.582,2.486,2.26 c0.828,0.604,1.75,1.13,2.768,1.582s2.09,0.678,3.221,0.678c1.43,0,2.768-0.356,4.012-1.073c1.242-0.715,2.316-2.034,3.221-3.955 s1.619-4.613,2.146-8.079c0.525-3.465,0.791-7.947,0.791-13.447c0-5.348-0.266-9.718-0.791-13.108 c-0.527-3.39-1.186-6.045-1.977-7.966s-1.695-3.221-2.713-3.898c-1.018-0.679-2.016-1.018-2.994-1.018 c-1.734,0-3.24,0.472-4.52,1.413c-1.283,0.942-2.336,1.978-3.164,3.107c-0.98,1.355-1.809,2.863-2.486,4.52V130.301z"/>
		<path d="M536.432,78.32c4.67,0,8.852,0.679,12.543,2.034c3.689,1.356,6.836,3.334,9.436,5.933 s4.576,5.745,5.932,9.436c1.357,3.691,2.035,7.873,2.035,12.543c0,4.672-0.678,8.853-2.035,12.543 c-1.355,3.692-3.332,6.837-5.932,9.436s-5.746,4.576-9.436,5.933c-3.691,1.355-7.873,2.034-12.543,2.034 c-4.672,0-8.854-0.679-12.543-2.034c-3.691-1.356-6.836-3.334-9.436-5.933s-4.576-5.743-5.934-9.436 c-1.355-3.69-2.033-7.871-2.033-12.543c0-4.67,0.678-8.852,2.033-12.543c1.357-3.69,3.334-6.837,5.934-9.436 s5.744-4.576,9.436-5.933C527.578,78.999,531.76,78.32,536.432,78.32z M536.432,135.95c1.279,0,2.561-0.413,3.842-1.242 c1.279-0.828,2.43-2.278,3.447-4.351c1.016-2.071,1.844-4.896,2.484-8.476c0.641-3.577,0.961-8.116,0.961-13.616 c0-5.498-0.32-10.037-0.961-13.616c-0.641-3.577-1.469-6.402-2.484-8.476c-1.018-2.07-2.168-3.521-3.447-4.351 c-1.281-0.828-2.562-1.242-3.842-1.242c-1.281,0-2.562,0.414-3.842,1.242c-1.283,0.83-2.43,2.28-3.447,4.351 c-1.018,2.073-1.846,4.898-2.486,8.476c-0.641,3.579-0.959,8.118-0.959,13.616c0,5.5,0.318,10.039,0.959,13.616 c0.641,3.579,1.469,6.404,2.486,8.476c1.018,2.072,2.164,3.522,3.447,4.351C533.869,135.537,535.151,135.95,536.432,135.95z"/>
		<path d="M605.926,138.211c-9.645,0-17.141-2.656-22.488-7.967c-5.35-5.311-8.023-12.637-8.023-21.979 c0-4.67,0.68-8.852,2.035-12.543c1.355-3.69,3.238-6.837,5.65-9.436c2.41-2.599,5.328-4.576,8.758-5.933 c3.426-1.355,7.174-2.034,11.242-2.034c4.219,0,8.004,0.604,11.357,1.809c3.352,1.206,6.195,2.825,8.531,4.858 c2.334,2.034,4.125,4.427,5.367,7.176c1.242,2.751,1.865,5.67,1.865,8.758c0,1.056-0.057,1.978-0.17,2.769 s-0.246,1.488-0.396,2.09c-0.225,0.754-0.414,1.396-0.564,1.921c-3.316,0.679-6.818,1.243-10.51,1.695 c-3.162,0.452-6.818,0.848-10.961,1.187s-8.475,0.509-12.994,0.509c0,4.672,0.34,8.57,1.018,11.695 c0.678,3.127,1.619,5.613,2.824,7.458c1.205,1.847,2.637,3.164,4.295,3.955c1.656,0.791,3.463,1.187,5.424,1.187 c2.26,0,4.387-0.413,6.385-1.243c1.994-0.828,3.729-1.938,5.197-3.333c1.469-1.394,2.637-2.976,3.504-4.746 c0.863-1.77,1.299-3.56,1.299-5.368h2.824c0,2.261-0.508,4.446-1.525,6.555c-1.018,2.109-2.469,3.974-4.35,5.593 c-1.885,1.621-4.145,2.921-6.781,3.898C612.102,137.72,609.164,138.211,605.926,138.211z M594.625,108.266 c2.561,0,4.82-0.057,6.779-0.17c1.959-0.112,3.617-0.243,4.973-0.396c1.582-0.149,2.938-0.339,4.068-0.564 c0.15-0.752,0.338-1.582,0.564-2.486c0.15-0.828,0.283-1.751,0.396-2.769c0.111-1.017,0.168-2.09,0.168-3.221 c0-3.39-0.264-6.232-0.791-8.531c-0.527-2.297-1.186-4.161-1.977-5.594c-0.791-1.43-1.695-2.446-2.713-3.051 c-1.016-0.602-2.016-0.903-2.994-0.903c-0.98,0-1.977,0.358-2.994,1.073c-1.018,0.717-1.922,2.072-2.713,4.067 c-0.791,1.997-1.451,4.803-1.977,8.419C594.889,97.757,594.625,102.466,594.625,108.266z"/>
		<path d="M677.115,106.006c2.408,0,4.5,0.265,6.271,0.791c1.768,0.527,3.293,1.225,4.576,2.09 c1.279,0.867,2.316,1.885,3.107,3.052c0.791,1.169,1.412,2.392,1.863,3.672l5.65,17.516l5.65,1.694v1.695h-11.865 c-4.219,0-7.514-0.961-9.887-2.882s-3.975-4.161-4.803-6.724l-6.215-18.645h-7.91v24.86l6.779,1.694v1.695h-31.641v-1.695 l6.781-1.694V83.405l-6.781-1.694v-1.695h31.641v1.695l-6.779,1.694v22.035h3.955c2.26,0,4.18-0.734,5.762-2.203 s2.674-3.182,3.277-5.142l2.826-10.17c0.828-2.862,2.09-5.085,3.785-6.667s3.822-2.373,6.385-2.373 c3.389,0,6.025,0.904,7.91,2.712c1.881,1.808,2.824,4.294,2.824,7.458c0,2.864-0.773,5.085-2.316,6.667 c-1.545,1.582-3.598,2.373-6.158,2.373c-0.604,0-1.188-0.018-1.752-0.057c-0.564-0.037-1.037-0.094-1.412-0.17 c-0.527-0.073-0.98-0.187-1.355-0.339V82.275c-2.188,0.528-3.693,2.412-4.521,5.65l-2.824,10.17 c-0.451,1.582-1.018,2.882-1.695,3.898s-1.355,1.827-2.033,2.43c-0.83,0.754-1.658,1.281-2.486,1.582H677.115z"/>
		<path d="M744.914,82.841v50.285l6.779,1.694v1.695h-31.639v-1.695l6.779-1.694V82.841h-8.475 c0,2.712-0.396,5.104-1.188,7.176c-0.791,2.072-1.637,3.861-2.541,5.367c-1.057,1.733-2.26,3.203-3.617,4.407h-3.389V80.016h56.5 v19.775h-3.391c-1.432-1.204-2.676-2.674-3.729-4.407c-0.904-1.506-1.734-3.295-2.486-5.367c-0.754-2.071-1.131-4.464-1.131-7.176 H744.914z"/>
		<path d="M280.207,348.7c4.368,0.152,8.323,0.717,11.865,1.695c1.43,0.452,2.862,0.999,4.294,1.639 c1.43,0.641,2.712,1.432,3.842,2.373c1.13,0.942,2.034,2.072,2.712,3.39c0.678,1.319,1.017,2.808,1.017,4.464 c0,1.96-0.491,3.861-1.469,5.706c-0.98,1.848-2.618,3.485-4.916,4.916c-2.299,1.432-5.33,2.562-9.096,3.39 c-3.768,0.83-8.401,1.243-13.899,1.243h-31.075v-1.695l6.78-1.694v-49.721l-6.78-1.694v-1.695h28.815 c5.198,0,9.605,0.415,13.221,1.243c3.616,0.83,6.535,1.921,8.757,3.276c2.221,1.356,3.823,2.882,4.803,4.577 c0.978,1.694,1.469,3.372,1.469,5.028c0,1.658-0.282,3.107-0.848,4.351c-0.565,1.243-1.338,2.316-2.316,3.221 c-0.98,0.903-2.073,1.677-3.277,2.316c-1.206,0.641-2.449,1.149-3.729,1.525c-3.014,0.904-6.404,1.432-10.17,1.582V348.7z M268.342,323.841v23.165h3.955c2.486,0,4.707-1.055,6.667-3.164c1.958-2.108,2.938-5.009,2.938-8.701 c0-3.39-0.96-6.12-2.881-8.192c-1.921-2.071-4.164-3.107-6.724-3.107H268.342z M268.342,349.831v24.859h6.215 c3.164,0,5.743-1.073,7.74-3.221c1.995-2.146,2.995-5.215,2.995-9.209c0-3.992-1-7.062-2.995-9.21 c-1.997-2.146-4.577-3.22-7.74-3.22H268.342z"/>
		<path d="M376.257,321.581c-1.96,0-3.768,0.414-5.424,1.242c-1.658,0.83-3.09,2.28-4.294,4.351 c-1.206,2.073-2.147,4.898-2.825,8.476c-0.678,3.579-1.017,8.118-1.017,13.616c0,5.35,0.339,9.774,1.017,13.277 c0.678,3.503,1.619,6.271,2.825,8.306c1.205,2.034,2.636,3.466,4.294,4.294c1.656,0.83,3.464,1.243,5.424,1.243 c2.26,0,4.388-0.413,6.384-1.243c1.995-0.828,3.729-1.938,5.198-3.333c1.469-1.394,2.636-2.976,3.503-4.746 c0.865-1.77,1.299-3.56,1.299-5.368h2.825c0,2.261-0.508,4.446-1.525,6.555c-1.017,2.109-2.468,3.974-4.351,5.593 c-1.884,1.621-4.144,2.921-6.78,3.898c-2.638,0.979-5.576,1.47-8.814,1.47c-9.644,0-17.139-2.656-22.487-7.967 c-5.35-5.311-8.023-12.637-8.023-21.979c0-9.34,2.673-16.668,8.023-21.979c5.348-5.311,12.843-7.967,22.487-7.967 c3.69,0,6.854,0.358,9.492,1.074c2.636,0.717,4.803,1.657,6.498,2.824c1.695,1.169,2.938,2.486,3.729,3.955 c0.791,1.47,1.187,2.995,1.187,4.577c0,2.562-0.773,4.615-2.316,6.158c-1.545,1.545-3.599,2.316-6.159,2.316 c-0.604,0-1.187-0.018-1.751-0.057c-0.565-0.037-1.037-0.094-1.413-0.169c-0.528-0.074-0.98-0.188-1.356-0.34v-16.949 c-0.452-0.15-0.98-0.339-1.582-0.565c-0.528-0.15-1.13-0.282-1.808-0.396C377.839,321.637,377.085,321.581,376.257,321.581z"/>
		<path d="M409.026,324.405l-6.78-1.694v-1.695h10.17c2.636,0,4.802,0.452,6.498,1.356 c1.695,0.903,3.031,1.884,4.011,2.938c1.13,1.282,1.958,2.675,2.486,4.181c0.978-1.882,2.222-3.577,3.729-5.085 c1.279-1.279,2.955-2.447,5.027-3.503c2.072-1.054,4.614-1.582,7.628-1.582c3.238,0,6.271,0.642,9.097,1.921 c2.824,1.282,5.271,3.164,7.345,5.65c2.071,2.486,3.71,5.594,4.915,9.322c1.205,3.729,1.809,8.08,1.809,13.052 s-0.604,9.322-1.809,13.052c-1.205,3.729-2.9,6.836-5.084,9.322c-2.186,2.486-4.803,4.37-7.854,5.65 c-3.051,1.279-6.424,1.921-10.113,1.921c-1.961,0-3.749-0.227-5.368-0.679c-1.62-0.451-2.995-0.979-4.124-1.582 c-1.356-0.678-2.525-1.43-3.504-2.26v22.035l6.78,1.695v1.694h-31.64v-1.694l6.78-1.695V324.405z M427.106,371.301 c0.752,0.83,1.582,1.582,2.486,2.26c0.828,0.604,1.752,1.13,2.769,1.582s2.091,0.678,3.221,0.678c1.431,0,2.769-0.356,4.011-1.073 c1.244-0.715,2.317-2.034,3.221-3.955c0.904-1.921,1.619-4.613,2.147-8.079c0.526-3.465,0.791-7.947,0.791-13.447 c0-5.348-0.265-9.718-0.791-13.108c-0.528-3.39-1.187-6.045-1.978-7.966s-1.695-3.221-2.712-3.898 c-1.017-0.679-2.017-1.018-2.995-1.018c-1.733,0-3.239,0.472-4.52,1.413c-1.281,0.942-2.336,1.978-3.164,3.107 c-0.98,1.355-1.808,2.863-2.486,4.52V371.301z"/>
		<path d="M503.946,319.32c4.671,0,8.852,0.679,12.543,2.034c3.691,1.356,6.838,3.334,9.436,5.933 c2.6,2.599,4.577,5.745,5.934,9.436c1.355,3.691,2.033,7.873,2.033,12.543c0,4.672-0.678,8.853-2.033,12.543 c-1.356,3.692-3.334,6.837-5.934,9.436c-2.598,2.599-5.744,4.576-9.436,5.933c-3.691,1.355-7.872,2.034-12.543,2.034 c-4.672,0-8.852-0.679-12.543-2.034c-3.691-1.356-6.836-3.334-9.436-5.933c-2.598-2.599-4.576-5.743-5.932-9.436 c-1.355-3.69-2.034-7.871-2.034-12.543c0-4.67,0.679-8.852,2.034-12.543c1.355-3.69,3.334-6.837,5.932-9.436 c2.6-2.599,5.744-4.576,9.436-5.933C495.094,319.999,499.274,319.32,503.946,319.32z M503.946,376.95 c1.281,0,2.561-0.413,3.843-1.242c1.28-0.828,2.429-2.278,3.446-4.351c1.018-2.071,1.846-4.896,2.486-8.476 c0.639-3.577,0.961-8.116,0.961-13.616c0-5.498-0.322-10.037-0.961-13.616c-0.641-3.577-1.469-6.402-2.486-8.476 c-1.018-2.07-2.166-3.521-3.446-4.351c-1.282-0.828-2.562-1.242-3.843-1.242s-2.561,0.414-3.842,1.242 c-1.281,0.83-2.43,2.28-3.446,4.351c-1.017,2.073-1.847,4.898-2.485,8.476c-0.641,3.579-0.961,8.118-0.961,13.616 c0,5.5,0.32,10.039,0.961,13.616c0.639,3.579,1.469,6.404,2.485,8.476c1.017,2.072,2.165,3.522,3.446,4.351 C501.385,376.537,502.664,376.95,503.946,376.95z"/>
		<path d="M581.35,347.006c2.409,0,4.5,0.265,6.271,0.791c1.769,0.527,3.294,1.225,4.576,2.09 c1.28,0.867,2.316,1.885,3.107,3.052c0.791,1.169,1.412,2.392,1.864,3.672l5.65,17.516l5.649,1.694v1.695h-11.864 c-4.22,0-7.515-0.961-9.888-2.882s-3.975-4.161-4.803-6.724l-6.215-18.645h-7.91v24.86l6.78,1.694v1.695h-31.641v-1.695 l6.78-1.694v-49.721l-6.78-1.694v-1.695h31.641v1.695l-6.78,1.694v22.035h3.955c2.26,0,4.181-0.734,5.763-2.203 s2.674-3.182,3.277-5.142l2.825-10.17c0.828-2.862,2.09-5.085,3.785-6.667s3.822-2.373,6.385-2.373c3.39,0,6.026,0.904,7.91,2.712 c1.882,1.808,2.825,4.294,2.825,7.458c0,2.864-0.773,5.085-2.317,6.667c-1.545,1.582-3.598,2.373-6.158,2.373 c-0.604,0-1.187-0.018-1.751-0.057c-0.565-0.037-1.037-0.094-1.413-0.17c-0.527-0.073-0.979-0.187-1.355-0.339v-15.255 c-2.187,0.528-3.692,2.412-4.521,5.65l-2.825,10.17c-0.451,1.582-1.017,2.882-1.694,3.898c-0.679,1.017-1.356,1.827-2.034,2.43 c-0.83,0.754-1.658,1.281-2.486,1.582H581.35z"/>
		<path d="M293.599,15.357c0,3.589-1.219,6.339-3.656,8.252s-5.891,2.869-10.359,2.869h-5.738v15.336h-2.59V4.693 h9.09C289.181,4.693,293.599,8.248,293.599,15.357z M273.845,24.244h5.104c4.181,0,7.202-0.689,9.064-2.069 c1.862-1.38,2.793-3.618,2.793-6.716c0-2.86-0.88-4.98-2.641-6.36c-1.761-1.38-4.486-2.069-8.176-2.069h-6.145V24.244z"/>
		<path d="M317.797,41.814l-0.635-4.367h-0.203c-1.388,1.777-2.814,3.034-4.278,3.771 c-1.464,0.736-3.195,1.104-5.192,1.104c-2.708,0-4.816-0.694-6.322-2.082c-1.507-1.388-2.26-3.31-2.26-5.764 c0-2.691,1.121-4.782,3.364-6.271c2.243-1.489,5.488-2.276,9.737-2.361l5.256-0.152v-1.828c0-2.624-0.533-4.604-1.6-5.941 s-2.785-2.006-5.154-2.006c-2.556,0-5.205,0.711-7.947,2.133l-0.939-2.184c3.03-1.422,6.026-2.133,8.988-2.133 c3.03,0,5.294,0.787,6.792,2.361s2.247,4.028,2.247,7.363v18.357H317.797z M307.64,40.037c2.945,0,5.269-0.842,6.97-2.526 s2.552-4.024,2.552-7.021v-2.717l-4.824,0.203c-3.876,0.187-6.64,0.791-8.29,1.815s-2.476,2.619-2.476,4.786 c0,1.727,0.529,3.068,1.587,4.024C304.217,39.559,305.711,40.037,307.64,40.037z"/>
		<path d="M333.793,26.123c4.993,0,7.49-1.718,7.49-5.154c0-1.642-0.576-2.895-1.727-3.758 c-1.151-0.863-2.793-1.295-4.926-1.295c-1.354,0-2.615,0.156-3.783,0.47s-2.421,0.766-3.758,1.358l-0.939-2.082 c2.945-1.32,5.806-1.98,8.582-1.98c3.013,0,5.298,0.626,6.855,1.879c1.557,1.253,2.336,2.987,2.336,5.205 c0,3.199-1.642,5.239-4.926,6.119v0.152c2.048,0.508,3.538,1.35,4.469,2.526c0.931,1.177,1.396,2.679,1.396,4.507 c0,2.556-0.936,4.57-2.806,6.043c-1.871,1.473-4.465,2.209-7.782,2.209c-1.794,0-3.432-0.174-4.913-0.521 c-1.481-0.347-2.704-0.809-3.669-1.384v-2.514c1.743,0.829,3.25,1.393,4.52,1.688s2.624,0.444,4.062,0.444 c2.505,0,4.456-0.529,5.853-1.587s2.095-2.568,2.095-4.532c0-1.913-0.669-3.326-2.006-4.24c-1.337-0.914-3.343-1.371-6.018-1.371 h-3.834v-2.184H333.793z"/>
		<path d="M363.906,42.322c-4.249,0-7.347-1.591-9.293-4.773h-0.178l0.076,2.133 c0.067,1.253,0.102,2.624,0.102,4.113v10.512h-2.514V14.215h2.133l0.482,3.936h0.152c1.896-2.979,4.926-4.469,9.09-4.469 c3.724,0,6.563,1.223,8.519,3.669s2.933,6.005,2.933,10.677c0,4.536-1.028,8.053-3.085,10.55S367.461,42.322,363.906,42.322z M363.855,40.088c2.827,0,5.015-1.05,6.563-3.148s2.323-5.036,2.323-8.811c0-8.108-2.929-12.162-8.785-12.162 c-3.216,0-5.578,0.885-7.084,2.653c-1.507,1.769-2.26,4.65-2.26,8.646v0.812c0,4.316,0.724,7.397,2.171,9.242 S360.588,40.088,363.855,40.088z"/>
		<path d="M399.808,41.814l-0.635-4.367h-0.203c-1.388,1.777-2.814,3.034-4.278,3.771 c-1.464,0.736-3.195,1.104-5.192,1.104c-2.708,0-4.816-0.694-6.322-2.082c-1.507-1.388-2.26-3.31-2.26-5.764 c0-2.691,1.121-4.782,3.364-6.271c2.243-1.489,5.488-2.276,9.737-2.361l5.256-0.152v-1.828c0-2.624-0.533-4.604-1.6-5.941 s-2.785-2.006-5.154-2.006c-2.556,0-5.205,0.711-7.947,2.133l-0.939-2.184c3.03-1.422,6.026-2.133,8.988-2.133 c3.03,0,5.294,0.787,6.792,2.361s2.247,4.028,2.247,7.363v18.357H399.808z M389.652,40.037c2.945,0,5.269-0.842,6.97-2.526 s2.552-4.024,2.552-7.021v-2.717l-4.824,0.203c-3.876,0.187-6.64,0.791-8.29,1.815s-2.476,2.619-2.476,4.786 c0,1.727,0.529,3.068,1.587,4.024C386.228,39.559,387.722,40.037,389.652,40.037z"/>
		<path d="M409.101,25.234c0-11.984,3.377-18.814,10.131-20.49c2.37-0.593,4.642-1.096,6.817-1.511 c2.176-0.415,4.102-0.783,5.777-1.104l0.457,2.184l-3.047,0.584c-5.027,0.948-8.346,1.676-9.954,2.184 c-2.285,0.66-4.075,2.243-5.37,4.748s-2.036,5.933-2.222,10.283h0.152c1.811-2.149,3.571-3.686,5.281-4.608 c1.709-0.923,3.47-1.384,5.281-1.384c3.385,0,5.975,1.092,7.77,3.275c1.793,2.184,2.691,5.29,2.691,9.318 c0,4.282-1.033,7.621-3.098,10.017c-2.066,2.396-4.969,3.593-8.709,3.593c-3.792,0-6.733-1.481-8.823-4.443 C410.146,34.917,409.101,30.702,409.101,25.234z M421.263,40.037c2.895,0,5.108-0.965,6.639-2.895 c1.532-1.93,2.299-4.706,2.299-8.328c0-3.437-0.682-6.03-2.045-7.782c-1.362-1.752-3.363-2.628-6.004-2.628 c-1.964,0-3.864,0.613-5.7,1.841c-1.837,1.228-3.44,2.924-4.812,5.091c0,3.03,0.376,5.688,1.13,7.973 c0.753,2.285,1.849,3.978,3.288,5.078C417.497,39.487,419.232,40.037,421.263,40.037z"/>
		<path d="M463.285,27.977c0,4.503-1.092,8.02-3.275,10.55s-5.197,3.796-9.039,3.796 c-2.422,0-4.555-0.584-6.398-1.752c-1.846-1.168-3.26-2.844-4.24-5.027c-0.982-2.184-1.473-4.706-1.473-7.566 c0-4.503,1.092-8.011,3.275-10.524s5.18-3.771,8.988-3.771c3.791,0,6.766,1.273,8.924,3.821S463.285,23.542,463.285,27.977z M441.5,27.977c0,3.792,0.833,6.75,2.5,8.874c1.668,2.124,4.025,3.187,7.072,3.187s5.403-1.062,7.07-3.187 c1.668-2.124,2.502-5.082,2.502-8.874c0-3.809-0.843-6.763-2.527-8.861c-1.684-2.099-4.049-3.148-7.096-3.148 s-5.396,1.045-7.047,3.136S441.5,24.151,441.5,27.977z"/>
		<path d="M488.448,16.398h-9.191v25.416h-2.488V16.398h-9.42v-2.184h21.1V16.398z"/>
		<path d="M510.867,41.814l-0.635-4.367h-0.203c-1.389,1.777-2.814,3.034-4.279,3.771 c-1.464,0.736-3.195,1.104-5.191,1.104c-2.709,0-4.816-0.694-6.322-2.082c-1.508-1.388-2.26-3.31-2.26-5.764 c0-2.691,1.121-4.782,3.363-6.271c2.243-1.489,5.488-2.276,9.738-2.361l5.256-0.152v-1.828c0-2.624-0.533-4.604-1.6-5.941 s-2.785-2.006-5.154-2.006c-2.557,0-5.205,0.711-7.947,2.133l-0.939-2.184c3.029-1.422,6.025-2.133,8.988-2.133 c3.029,0,5.293,0.787,6.791,2.361s2.248,4.028,2.248,7.363v18.357H510.867z M500.711,40.037c2.945,0,5.268-0.842,6.969-2.526 s2.553-4.024,2.553-7.021v-2.717l-4.824,0.203c-3.877,0.187-6.641,0.791-8.291,1.815s-2.475,2.619-2.475,4.786 c0,1.727,0.528,3.068,1.586,4.024C497.287,39.559,498.781,40.037,500.711,40.037z"/>
		<path d="M532.805,42.322c-4.012,0-7.14-1.235-9.383-3.707c-2.242-2.472-3.363-5.933-3.363-10.385 c0-4.401,1.082-7.926,3.25-10.575c2.166-2.649,5.086-3.974,8.76-3.974c3.25,0,5.814,1.134,7.693,3.402s2.818,5.349,2.818,9.242 v2.031h-19.881c0.033,3.792,0.918,6.687,2.652,8.684c1.735,1.997,4.219,2.996,7.453,2.996c1.574,0,2.957-0.11,4.15-0.33 s2.705-0.694,4.533-1.422v2.285c-1.559,0.677-2.996,1.139-4.316,1.384S534.395,42.322,532.805,42.322z M532.069,15.916 c-2.658,0-4.791,0.876-6.398,2.628c-1.609,1.752-2.549,4.278-2.818,7.579h17.062c0-3.199-0.695-5.7-2.082-7.503 C536.444,16.817,534.522,15.916,532.069,15.916z"/>
		<path d="M563.045,39.123l1.574-4.443l7.947-20.465h3.479v27.6h-2.387V17.262c-0.373,1.066-0.766,2.158-1.182,3.275 c-0.414,1.117-3.178,8.21-8.289,21.277h-2.234l-7.643-19.398c-0.322-0.778-0.623-1.6-0.902-2.463s-0.588-1.794-0.926-2.793v24.654 h-2.285v-27.6h3.326l7.973,20.312C562.121,36.169,562.639,37.701,563.045,39.123z"/>
		<path d="M414.008,266.215v19.957l-0.152,5.205l16.377-25.162h3.352v27.6h-2.412v-19.83l0.102-5.332l-16.377,25.162 h-3.275v-27.6H414.008z"/>
		<path d="M129.965,178.572h8.198l-34.084,29.984l22.686,31.053h-7.131l-21.956-30.828l-6.345,30.828h-5.503 l12.634-61.037h5.503l-6.177,29.424L129.965,178.572z"/>
		<path d="M170.9,177.617c8.684,0,13.906,4.1,15.667,12.297h0.337l3.313-11.342h4.492l-12.859,61.037h-4.604 l2.527-15.386h-0.337c-3.145,5.316-6.646,9.396-10.5,12.241c-3.856,2.846-8.292,4.268-13.308,4.268 c-10.52,0-15.779-7-15.779-21.001c0-7.374,1.404-14.412,4.211-21.113c2.808-6.7,6.56-11.876,11.258-15.526 C160.015,179.442,165.209,177.617,170.9,177.617z M156.918,235.679c3.332,0,6.654-1.16,9.967-3.481 c3.313-2.32,6.289-5.428,8.929-9.321c2.639-3.893,4.651-8.198,6.036-12.915c1.384-4.717,2.078-8.703,2.078-11.961 c0-2.956-0.487-5.605-1.46-7.945c-0.974-2.339-2.415-4.191-4.324-5.559c-1.909-1.366-4.287-2.05-7.131-2.05 c-4.642,0-8.835,1.535-12.578,4.604c-3.744,3.07-6.814,7.665-9.209,13.785c-2.396,6.121-3.594,12.213-3.594,18.277 c0,5.691,0.935,9.875,2.808,12.551C150.31,234.341,153.136,235.679,156.918,235.679z"/>
		<path d="M216.608,178.572c-2.583,11.904-3.997,18.68-4.239,20.326c-0.244,1.648-0.365,2.996-0.365,4.043 c0,2.771,0.833,4.97,2.499,6.599c1.665,1.628,4.314,2.442,7.945,2.442c6.101,0,11.53-2.535,16.284-7.608 c4.753-5.072,8.03-11.989,9.827-20.749l1.067-5.053h5.503l-13.14,61.037h-5.728c1.872-8.572,3.275-15.039,4.211-19.4 c0.935-4.36,2.246-9.631,3.931-15.807h-0.449c-6.028,8.273-13.533,12.409-22.517,12.409c-4.792,0-8.479-1.123-11.062-3.369 s-3.875-5.56-3.875-9.938c0-2.771,0.412-6.064,1.235-9.883l3.257-15.049H216.608z"/>
		<path d="M285.619,240.732c-6.477,0-11.531-2.05-15.161-6.148c-3.631-4.1-5.447-9.817-5.447-17.154 c0-6.775,1.328-13.271,3.987-19.485c2.658-6.214,6.317-11.155,10.978-14.824c4.66-3.668,9.798-5.503,15.414-5.503 c4.268,0,7.673,1.143,10.22,3.426c2.545,2.283,3.818,5.391,3.818,9.32c0,6.776-3.06,11.942-9.181,15.498 c-6.12,3.558-15.208,5.335-27.262,5.335h-1.853c-0.225,1.647-0.337,3.481-0.337,5.503c0,6.177,1.384,10.885,4.155,14.122 c2.77,3.238,6.757,4.857,11.96,4.857c4.941,0,10.107-1.366,15.498-4.099v5.277C297.167,239.441,291.571,240.732,285.619,240.732z M294.716,182.446c-4.905,0-9.461,2.162-13.673,6.485c-4.211,4.324-7.253,10.099-9.125,17.323h2.751 c19.353,0,29.031-5.054,29.031-15.161c0-2.508-0.814-4.576-2.443-6.205C299.629,183.261,297.448,182.446,294.716,182.446z"/>
		<path d="M338.177,240.732c-6.514,0-11.652-2.068-15.414-6.205c-3.763-4.136-5.644-9.873-5.644-17.211 c0-7.224,1.376-13.99,4.127-20.299c2.752-6.308,6.466-11.118,11.146-14.431c4.679-3.313,10.107-4.97,16.284-4.97 c5.016,0,9.526,0.806,13.533,2.414l-1.572,5.055c-4.006-1.76-8.086-2.64-12.241-2.64c-4.829,0-9.181,1.441-13.055,4.323 c-3.875,2.884-6.917,7.039-9.125,12.467c-2.209,5.428-3.313,11.418-3.313,17.969c0,5.915,1.375,10.472,4.127,13.673 c2.751,3.2,6.654,4.801,11.708,4.801c2.658,0,5.119-0.243,7.384-0.729c2.264-0.486,4.725-1.348,7.384-2.584v5.166 C349.164,239.666,344.054,240.732,338.177,240.732z"/>
		<path d="M401.124,239.609l8.255-37.847c0.936-4.679,1.403-7.711,1.403-9.097c0-6.812-2.883-10.22-8.646-10.22 c-3.969,0-7.713,1.264-11.23,3.79c-3.52,2.527-6.496,6.056-8.929,10.585c-2.434,4.53-4.305,9.902-5.615,16.116l-5.615,26.672 h-5.503l12.971-61.037h4.492l-1.853,11.791h0.337c2.994-4.229,6.392-7.412,10.191-9.545c3.799-2.135,7.777-3.201,11.933-3.201 c3.968,0,7.019,1.255,9.153,3.762c2.133,2.509,3.256,6.159,3.369,10.95h0.336c2.883-4.829,6.271-8.487,10.164-10.978 c3.893-2.489,8.049-3.734,12.467-3.734c4.379,0,7.795,1.151,10.248,3.453c2.451,2.303,3.678,5.606,3.678,9.911 c0,1.086-0.049,2.144-0.141,3.173c-0.094,1.03-0.459,3.267-1.096,6.71l-8.535,38.745h-5.615l8.367-38.184 c0.936-4.492,1.404-7.786,1.404-9.883c0-2.882-0.807-5.118-2.416-6.71c-1.609-1.591-3.836-2.387-6.682-2.387 c-5.877,0-11.07,2.574-15.582,7.721c-4.512,5.147-7.665,11.933-9.462,20.355l-6.12,29.087H401.124z"/>
		<path d="M497.369,177.617c5.539,0,9.834,1.319,12.887,3.959c3.051,2.639,4.576,6.299,4.576,10.978 c0,4.455-1.367,8.077-4.1,10.865c-2.732,2.789-6.607,4.727-11.623,5.812v0.225c3.893,0.638,6.936,2.069,9.125,4.296 c2.189,2.228,3.285,5.063,3.285,8.507c0,3.52-0.947,6.683-2.836,9.49c-1.891,2.808-4.625,5.007-8.199,6.598 s-7.832,2.387-12.773,2.387c-7.264,0-12.803-2.143-16.621-6.43c-3.818-4.286-5.729-10.416-5.729-18.39 c0-6.925,1.367-13.354,4.1-19.288c2.732-5.933,6.541-10.585,11.428-13.954C485.774,179.302,491.266,177.617,497.369,177.617z M471.033,212.264l-0.113,4.099c0,6.327,1.508,11.128,4.521,14.403c3.012,3.276,7.402,4.913,13.168,4.913 c5.391,0,9.592-1.16,12.605-3.481c3.014-2.32,4.52-5.483,4.52-9.49c0-6.963-5.053-10.443-15.16-10.443H471.033z M496.92,182.446 c-6.215,0-11.643,2.274-16.285,6.822c-4.643,4.549-7.693,10.566-9.152,18.054h13.477c7.973,0,13.99-1.217,18.053-3.65 c4.062-2.433,6.092-5.933,6.092-10.5c0-3.294-1.047-5.905-3.145-7.834C503.864,183.41,500.85,182.446,496.92,182.446z"/>
		<path d="M545.66,240.732c-6.477,0-11.531-2.05-15.162-6.148c-3.631-4.1-5.445-9.817-5.445-17.154 c0-6.775,1.328-13.271,3.986-19.485c2.658-6.214,6.316-11.155,10.979-14.824c4.66-3.668,9.797-5.503,15.412-5.503 c4.268,0,7.674,1.143,10.221,3.426c2.545,2.283,3.818,5.391,3.818,9.32c0,6.776-3.061,11.942-9.182,15.498 c-6.119,3.558-15.207,5.335-27.262,5.335h-1.854c-0.225,1.647-0.336,3.481-0.336,5.503c0,6.177,1.385,10.885,4.154,14.122 c2.771,3.238,6.758,4.857,11.961,4.857c4.941,0,10.107-1.366,15.498-4.099v5.277C557.209,239.441,551.612,240.732,545.66,240.732z M554.756,182.446c-4.904,0-9.461,2.162-13.672,6.485c-4.211,4.324-7.254,10.099-9.125,17.323h2.752 c19.354,0,29.029-5.054,29.029-15.161c0-2.508-0.812-4.576-2.441-6.205C559.67,183.261,557.489,182.446,554.756,182.446z"/>
		<path d="M594.063,178.572l-5.615,26.896h35.096l5.84-26.896h5.672l-13.027,61.037h-5.729l6.178-28.975h-35.039 l-6.232,28.975h-5.615l13.082-61.037H594.063z"/>
		<path d="M661.895,178.572l-5.615,26.896h35.096l5.84-26.896h5.672l-13.027,61.037h-5.729l6.178-28.975H655.27 l-6.232,28.975h-5.615l13.082-61.037H661.895z"/>
		<path d="M743.541,177.393c6.738,0,11.951,2.031,15.639,6.093c3.686,4.062,5.531,9.668,5.531,16.817 c0,7.375-1.34,14.272-4.016,20.692c-2.676,6.421-6.336,11.314-10.979,14.684c-4.641,3.369-9.994,5.054-16.059,5.054 c-6.889,0-12.121-2.05-15.695-6.148c-3.574-4.1-5.361-9.967-5.361-17.604c0-7.15,1.365-13.851,4.098-20.104 c2.732-6.251,6.42-11.062,11.062-14.431S737.664,177.393,743.541,177.393z M743.092,182.222c-4.643,0-8.816,1.47-12.521,4.408 c-3.707,2.939-6.664,7.15-8.873,12.634c-2.209,5.484-3.312,11.297-3.312,17.436c0,12.803,5.277,19.204,15.834,19.204 c4.754,0,8.977-1.45,12.664-4.352c3.686-2.9,6.625-7.168,8.814-12.803c2.191-5.634,3.285-11.82,3.285-18.559 c0-5.765-1.367-10.2-4.1-13.308S748.221,182.222,743.092,182.222z"/>
		<path d="M811.977,29H813v-1h-1.023H596.023H595v1h1.022H811.977z"/>
		<path d="M248.977,29H250v-1h-1.023H33.023H32v1h1.022H248.977z"/>
		<path d="M23.5,20c1.5,0,2.5,1,3,2H250v3H26.5c-0.5,1-1.5,2-3,2c-2,0-3.5-1.5-3.5-3.5 S21.5,20,23.5,20z M6.5,30C3,30,0,27,0,23.5S3,17,6.5,17s6.5,3,6.5,6.5S10,30,6.5,30z"/>
		<path d="M821.5,20c-1.5,0-2.5,1-3,2H595v3h223.5c0.5,1,1.5,2,3,2c2,0,3.5-1.5,3.5-3.5 S823.5,20,821.5,20z M838.5,30c3.5,0,6.5-3,6.5-6.5s-3-6.5-6.5-6.5s-6.5,3-6.5,6.5S835,30,838.5,30z"/>
		<path d="M812.071,350H813v-1h-0.93H615.929H615v1h0.929H812.071z"/>
		<path d="M228.075,350H229v-1h-0.925H32.924H32v1h0.924H228.075z"/>
		<path d="M23.5,351c1.5,0,2.5,1,3,2H229v3H26.5c-0.5,1-1.5,2-3,2c-2,0-3.5-1.5-3.5-3.5 S21.5,351,23.5,351z M6.5,361C3,361,0,358,0,354.5s3-6.5,6.5-6.5s6.5,3,6.5,6.5S10,361,6.5,361z"/>
		<path d="M821.5,351c-1.5,0-2.5,1-3,2H615v3h203.5c0.5,1,1.5,2,3,2c2,0,3.5-1.5,3.5-3.5 S823.5,351,821.5,351z M838.5,361c3.5,0,6.5-3,6.5-6.5s-3-6.5-6.5-6.5s-6.5,3-6.5,6.5S835,361,838.5,361z"/>
		<path d="M392.319,279.057l0.182,0.021h-0.356c-2.112,0.267-13.021,1.738-16.644,4.127 c-2.365,1.558-11.276,2.775-15.993,0.982c-3.157-1.2-3.02-4.816-3.002-5.131c-0.018-0.315-0.155-3.932,3.002-5.132 c4.717-1.792,13.628-0.575,15.993,0.982c3.623,2.388,14.531,3.86,16.644,4.127h0.356L392.319,279.057z M389.694,284.078 c0,0-5.676,3.902-6.838,7.451s-3.315,10.522-8.658,7.762c-2.181-1.128-1.266-6.519,2.08-9.369 C381.129,285.789,389.694,284.078,389.694,284.078z M376.278,268.078c-3.346-2.851-4.261-8.241-2.08-9.369 c5.343-2.761,7.496,4.213,8.658,7.762s6.838,7.451,6.838,7.451S381.129,272.211,376.278,268.078z"/>
		<path d="M453.5,279.078h0.355c2.112,0.267,13.021,1.738,16.645,4.127 c2.363,1.558,11.275,2.775,15.992,0.982c3.157-1.2,3.02-4.816,3.002-5.131c0.018-0.315,0.155-3.932-3.002-5.132 c-4.717-1.792-13.629-0.575-15.992,0.982c-3.624,2.388-14.532,3.86-16.645,4.127H453.5l0.181,0.022L453.5,279.078z M463.144,291.529c1.162,3.549,3.315,10.522,8.657,7.762c2.182-1.128,1.267-6.519-2.079-9.369 c-4.852-4.133-13.416-5.844-13.416-5.844S461.982,287.98,463.144,291.529z M471.801,258.709c-5.342-2.761-7.495,4.213-8.657,7.762 s-6.838,7.451-6.838,7.451s8.564-1.711,13.416-5.844C473.068,265.228,473.983,259.837,471.801,258.709z"/>
	</g>
</svg> 
